HIERARCHY
ROOT Hips
{
	OFFSET -3.958830 18.904000 13.208200
	CHANNELS 6 Xposition Yposition Zposition Zrotation Yrotation Xrotation 
	JOINT LHipJoint
	{
		OFFSET 0.000000 0.000000 0.000000
		CHANNELS 3 Zrotation Yrotation Xrotation
		JOINT LeftUpLeg
		{
			OFFSET 1.800000 -1.400000 0.085000
			CHANNELS 3 Zrotation Yrotation Xrotation
			JOINT LeftLeg
			{
				OFFSET 2.215000 -6.000000 0.000000
				CHANNELS 3 Zrotation Yrotation Xrotation
				JOINT LeftFoot
				{
					OFFSET 2.500000 -6.900000 0.000000
					CHANNELS 3 Zrotation Yrotation Xrotation
					JOINT LeftToeBase
					{
						OFFSET 0.200000 -0.500000 1.950000
						CHANNELS 3 Zrotation Yrotation Xrotation
						End Site
						{
							OFFSET 0.000000 0.000000 0.000000
						}
					}
				}
			}
		}
	}
	JOINT RHipJoint
	{
		OFFSET 0.000000 0.000000 0.000000
		CHANNELS 3 Zrotation Yrotation Xrotation
		JOINT RightUpLeg
		{
			OFFSET -1.800000 -1.400000 0.085000
			CHANNELS 3 Zrotation Yrotation Xrotation
			JOINT RightLeg
			{
				OFFSET -2.215000 -6.000000 0.000000
				CHANNELS 3 Zrotation Yrotation Xrotation
				JOINT RightFoot
				{
					OFFSET -2.500000 -6.900000 0.000000
					CHANNELS 3 Zrotation Yrotation Xrotation
					JOINT RightToeBase
					{
						OFFSET -0.200000 -0.500000 1.950000
						CHANNELS 3 Zrotation Yrotation Xrotation
						End Site
						{
							OFFSET 0.000000 0.000000 0.000000
						}
					}
				}
			}
		}
	}
	JOINT LowerBack
	{
		OFFSET 0.000000 0.000000 0.000000
		CHANNELS 3 Zrotation Yrotation Xrotation
		JOINT Spine
		{
			OFFSET -0.087000 1.940000 -0.288900
			CHANNELS 3 Zrotation Yrotation Xrotation
			JOINT Spine1
			{
				OFFSET 0.000000 1.950000 0.060000
				CHANNELS 3 Zrotation Yrotation Xrotation
				JOINT Neck
				{
					OFFSET 0.000000 0.000000 0.000000
					CHANNELS 3 Zrotation Yrotation Xrotation
					JOINT Neck1
					{
						OFFSET 0.000000 1.600000 0.340000
						CHANNELS 3 Zrotation Yrotation Xrotation
						JOINT Head
						{
							OFFSET 0.000000 1.667000 -0.240000
							CHANNELS 3 Zrotation Yrotation Xrotation
							End Site
							{
								OFFSET 0.000000 0.000000 0.000000
							}
						}
					}
				}
				JOINT LeftShoulder
				{
					OFFSET 0.000000 0.000000 0.000000
					CHANNELS 3 Zrotation Yrotation Xrotation
					JOINT LeftArm
					{
						OFFSET 2.700000 1.550000 -0.730000
						CHANNELS 3 Zrotation Yrotation Xrotation
						JOINT LeftForeArm
						{
							OFFSET 5.450000 0.000000 0.000000
							CHANNELS 3 Zrotation Yrotation Xrotation
							JOINT LeftHand
							{
								OFFSET 3.450000 0.000000 0.000000
								CHANNELS 3 Zrotation Yrotation Xrotation
								JOINT LeftHandIndex1
								{
									OFFSET 0.750000 0.000000 0.000000
									CHANNELS 3 Zrotation Yrotation Xrotation
									End Site
									{
										OFFSET 0.000000 0.000000 0.000000
									}
								}
							}
						}
					}
				}
				JOINT RightShoulder
				{
					OFFSET 0.000000 0.000000 0.000000
					CHANNELS 3 Zrotation Yrotation Xrotation
					JOINT RightArm
					{
						OFFSET -2.700000 1.550000 -0.730000
						CHANNELS 3 Zrotation Yrotation Xrotation
						JOINT RightForeArm
						{
							OFFSET -5.450000 0.000000 0.000000
							CHANNELS 3 Zrotation Yrotation Xrotation
							JOINT RightHand
							{
								OFFSET -3.450000 0.000000 0.000000
								CHANNELS 3 Zrotation Yrotation Xrotation
								JOINT RightHandIndex1
								{
									OFFSET -0.750000 0.000000 0.000000
									CHANNELS 3 Zrotation Yrotation Xrotation
									End Site
									{
										OFFSET 0.000000 0.000000 0.000000
									}
								}
							}
						}
					}
				}
			}
		}
	}
}
MOTION
Frames: 12
Frame Time: 0.016667
12.831610 17.681390 4.917480 4.372378 -11.747377 2.859565 -15.346848 13.633833 3.701778 2.169784 -0.060949 -1.667802 -11.329836 4.810748 -0.947650 0.007147 4.535273 3.296583 0.428660 0.007400 0.386810 18.062158 -9.933120 3.488056 4.484439 1.665698 -11.888147 3.623663 -2.287566 -1.604386 -0.207590 -2.644183 3.595341 -0.058190 0.184200 0.342280 -2.818163 -3.521946 -8.831130 16.145078 -5.233842 7.600026 -5.953634 -2.099371 -7.125216 7.595271 2.253292 -16.109403 1.858458 -11.730103 33.137176 -11.944730 -7.404370 -2.043580 2.902485 -3.809353 2.509805 -9.286205 -7.079500 1.342045 6.308424 3.099754 -0.358538 -4.229204 2.748237 0.377920 0.136250 -0.043750 0.262780 -19.290468 7.867300 14.189329 23.047679 -6.082955 -2.504422 -2.599265 5.126185 -0.288957 2.474288 -1.396589 -0.043370 -0.016330 -0.142970 -0.123670 
12.767540 17.714540 4.905690 5.265080 -11.585314 2.408303 -15.408350 13.507156 3.618615 0.795686 0.090014 -1.718270 -10.319177 4.704891 -0.159897 0.001779 4.288450 3.382543 0.539970 0.177820 0.448710 18.011277 -10.068740 3.472316 3.460666 1.476473 -11.704834 4.902344 -2.363172 -1.801255 -0.228355 -2.794770 3.541350 0.049510 0.143770 0.307430 -2.653577 -3.032333 -8.728430 13.251829 -4.716064 7.453432 -3.690984 -2.365980 -5.067557 7.830726 2.909453 -16.228458 3.705677 -12.850650 30.553947 -12.154350 -7.468570 -1.769950 3.122433 -4.106860 2.442591 -10.230277 -7.238055 1.234684 6.706749 2.148806 -0.271063 -4.144441 2.845066 0.315670 0.130240 -0.032680 0.323670 -19.997618 7.934722 14.702061 23.682326 -5.877856 -2.010194 -3.212798 3.853153 -0.449795 2.543829 -1.529403 -0.022100 -0.043410 -0.274430 -0.092260 
12.609400 17.827250 4.970790 5.675567 -14.763221 1.555043 -15.442418 13.468194 3.639566 -0.973587 0.137074 -2.129619 -9.529242 4.525564 0.080017 -0.037386 4.066102 3.476036 0.649790 0.273590 0.554040 17.974361 -10.101251 3.517317 2.919806 1.130590 -10.345132 6.375668 -2.491364 -2.528566 -0.295006 -2.944207 3.504269 0.109600 0.096630 0.246180 -2.495264 -2.907782 -8.795662 11.672453 -3.769589 8.813035 -1.947191 -1.321805 -5.400827 7.761412 2.492193 -16.289274 2.882779 -12.122434 32.109701 -10.829200 -7.795900 -2.519420 3.007234 -3.612192 1.969433 -12.353703 -7.442497 1.114454 8.111615 0.815218 -0.221425 -3.996397 2.867458 0.369950 0.063840 -0.003470 0.370460 -19.449306 8.725328 14.858286 22.789217 -3.889494 -1.067647 -4.724175 0.059055 -0.268829 2.698953 -1.524460 -0.047320 -0.017220 -0.387600 -0.102630 
12.475330 17.851190 5.008730 5.256747 -15.019985 0.261519 -15.466987 13.328448 3.582698 -0.803564 0.086117 -2.504928 -10.050427 4.474055 -0.703093 -0.100221 4.236276 3.465558 0.551930 0.212810 0.413010 18.005033 -10.019644 3.465546 2.616921 0.836515 -8.602052 7.734080 -2.754497 -2.695987 -0.268866 -3.277598 3.423866 0.148070 0.299780 0.249750 -2.544310 -2.859063 -8.613793 12.029913 -4.300219 10.023233 -2.644076 -2.478030 -1.376746 8.215440 2.078641 -15.878695 3.120757 -10.869010 27.548080 -9.581140 -6.871530 -1.563800 3.148433 -3.738380 1.647912 -11.814774 -8.739773 1.573801 9.560976 2.960912 -0.183036 -4.263496 2.832078 0.255190 0.221360 -0.143900 0.374070 -20.555357 8.859114 15.079077 24.803922 -2.906784 -0.727833 -5.459870 0.297060 -0.405849 2.576713 -1.590481 -0.117720 0.080830 -0.269530 -0.075290 
12.344010 17.891190 5.049570 3.884364 -17.035459 -1.059440 -15.404444 13.348751 3.642268 -0.103891 -0.086783 -3.056408 -10.376606 4.325432 -1.734242 -0.170297 4.268693 3.429682 0.484520 0.104830 0.388110 18.066523 -10.069063 3.389178 4.170768 0.611882 -7.554694 6.169487 -3.109415 0.150040 -0.282966 -3.178852 3.439458 0.080760 0.286530 0.236630 -2.697775 -2.907993 -8.576979 14.191073 -4.819841 12.717828 -3.374229 -2.521444 0.315763 7.437397 2.617680 -16.065714 4.013158 -10.429865 27.941035 -7.579540 -7.046270 -4.443980 2.996947 -5.080783 2.777851 -12.312988 -6.625395 0.968790 11.136755 1.810958 -0.334625 -4.219948 2.795227 0.372040 0.164380 -0.122990 0.311520 -19.167087 9.077044 14.856762 23.403718 -1.747407 -0.391976 -6.006410 -1.238207 -0.106378 2.585698 -1.443564 -0.160780 0.126790 -0.171390 -0.124840 
12.205870 17.895530 5.100010 2.935756 -18.252380 -1.657330 -15.375569 13.136470 3.570482 0.113762 -0.137827 -3.496180 -10.804505 4.249098 -2.173488 -0.230538 4.271146 3.454422 0.512250 0.154260 0.427150 18.140141 -10.109270 3.329443 4.401167 0.660782 -7.897412 7.077013 -3.334749 0.944854 -0.283199 -3.240888 3.443637 0.139770 0.313000 0.211770 -2.877617 -2.479942 -8.349588 14.880967 -4.857635 12.964996 -2.584826 -3.549017 5.535411 7.083905 2.776249 -16.273160 4.951987 -9.711398 24.361170 -8.371220 -5.038350 -5.714690 1.662641 -7.468933 4.565070 -11.614433 -2.365004 0.039498 11.534724 -2.653066 -0.674866 -4.116518 2.815011 0.380930 0.202760 -0.126730 0.336680 -17.081419 9.967055 14.530395 20.855342 -0.310197 0.252293 -6.060359 -5.761155 0.028494 2.658709 -1.416850 -0.214690 0.177660 -0.212320 -0.144190 
12.033870 17.912060 5.171030 2.964119 -18.791916 -1.774452 -15.438173 13.357268 3.520727 0.928648 -0.239334 -4.279826 -11.727395 4.808845 0.653955 -0.210809 4.337109 3.381314 0.593490 0.231170 0.445710 18.044781 -9.985004 3.420645 4.676641 1.107865 -9.456463 7.206315 -2.968500 -0.415743 -0.270473 -3.064522 3.459517 0.168170 0.266410 0.250230 -2.604988 -2.948377 -8.473941 13.491456 -4.975294 15.353888 -1.625125 -2.880668 1.480543 7.357163 2.841442 -15.484086 4.898607 -9.650348 24.976742 -6.526030 -5.964710 -6.238670 1.468658 -5.419084 2.865549 -13.146685 -5.165786 0.318053 13.666935 -0.036895 -0.489878 -4.154862 2.935965 0.371860 0.164100 -0.110660 0.348520 -17.453530 8.861286 14.189557 23.033321 -0.195533 -0.126973 -8.473268 -4.673452 0.086450 2.661744 -1.562977 -0.147080 0.106870 -0.234400 -0.130120 
11.895910 17.827360 5.232970 2.217024 -19.607447 -1.396089 -15.296786 13.001115 3.238301 0.809132 -0.185296 -5.017450 -10.136797 4.716751 1.931421 -0.322346 4.162696 3.473328 0.601020 0.246850 0.453510 18.238161 -10.166755 3.515448 5.531523 1.520877 -11.002440 6.661326 -2.579113 -2.643010 -0.245770 -3.049271 3.475854 0.212580 0.342330 0.260710 -3.151936 -1.894928 -8.122449 14.976492 -4.867602 12.992843 -2.154767 -4.050247 7.406234 6.413773 3.412050 -15.548457 6.566319 -9.498575 21.189865 -6.670220 -5.060620 -6.076190 0.331399 -8.152725 4.764136 -11.200116 -1.869055 -0.181560 14.298834 -0.394074 -0.613539 -4.195948 2.956218 0.331480 0.238970 -0.149210 0.374440 -14.426740 9.167565 13.614455 20.608020 0.839543 0.488752 -8.028496 -7.338308 0.076324 2.662622 -1.592570 -0.182320 0.147160 -0.243340 -0.127020 
11.759650 17.764540 5.299900 0.949292 -19.904943 -0.806147 -15.251259 12.983247 3.188108 1.877689 -0.251591 -5.455121 -10.075341 4.681315 1.824761 -0.288335 4.172213 3.434827 0.579890 0.207210 0.406640 18.284899 -10.115009 3.568395 6.163570 2.172004 -13.160596 6.724832 -2.364210 -3.019531 -0.185952 -2.900528 3.475007 0.173520 0.340990 0.324580 -3.302889 -1.877201 -8.093810 16.981600 -5.235467 13.210336 -2.708590 -4.059855 7.759777 5.932923 2.962306 -15.658707 5.973939 -9.557840 20.093082 -5.846300 -5.573260 -4.827000 1.062534 -8.512020 5.006808 -12.588927 -2.769723 -0.045279 14.050974 0.062605 -0.623407 -4.233010 3.111595 0.271050 0.252010 -0.182550 0.347110 -14.242536 9.346672 13.708179 22.204970 -0.892568 -0.239068 -9.362877 -6.416246 0.074134 2.675719 -1.693431 -0.116640 0.045690 -0.195000 -0.109190 
11.635060 17.651730 5.368870 -0.536382 -20.713010 1.053798 -15.117910 12.917381 3.021270 2.959190 -0.452818 -7.689022 -9.372891 4.715170 3.519163 -0.284690 3.951410 3.497726 0.544850 0.207540 0.361500 18.392310 -10.199694 3.669469 6.113644 3.202511 -17.062331 8.118830 -2.248339 -2.746432 -0.135157 -2.639327 3.573985 0.137500 0.345610 0.342720 -3.668378 -1.480585 -7.964161 20.056928 -6.348512 12.527841 -4.488221 -4.521661 7.551337 5.088526 3.465732 -15.677465 7.062564 -9.646335 18.550675 -5.289460 -5.151390 -5.280670 0.708871 -9.288546 6.175571 -12.910493 1.297297 -1.100004 15.350946 -2.833470 -0.781550 -4.162217 3.161541 0.247170 0.257740 -0.150800 0.358960 -12.657357 8.733077 12.950191 22.750403 -0.861214 -0.822818 -12.210078 -5.189540 0.108614 2.682179 -1.737056 -0.077890 0.034670 -0.197450 -0.074750 
11.495520 17.515260 5.452350 -1.930441 -20.952069 2.670457 -15.050858 12.779235 2.877283 4.477840 -0.630731 -9.163370 -8.764397 4.601209 3.682023 -0.394109 3.903399 3.572381 0.515380 0.206760 0.325180 18.476715 -10.214917 3.723720 6.950995 4.249783 -20.461960 7.506769 -2.002013 -2.028194 -0.005173 -2.409802 3.690301 0.204500 0.457570 0.259050 -3.926066 -1.105023 -7.797069 22.330951 -6.939253 10.516593 -4.555388 -5.382122 8.789642 4.581873 3.101506 -15.101593 6.774278 -9.951597 16.594089 -5.341700 -5.545760 -4.025850 -0.072328 -9.379438 6.241603 -12.906761 0.914216 -0.657788 14.019996 -0.219215 -0.528008 -4.251076 3.047194 0.193590 0.329740 -0.243340 0.388960 -10.714854 8.026275 12.297733 21.178359 -1.580657 -1.099544 -14.615390 -1.065755 -0.583974 2.552642 -1.829101 -0.179460 0.150340 -0.200250 -0.062790 
11.355130 17.384160 5.515380 -2.073628 -21.497874 1.719569 -15.056256 13.079801 2.815347 5.081499 -0.562781 -8.963809 -7.685963 4.888200 6.363385 -0.414622 3.958876 3.506518 0.546710 0.209280 0.357000 18.417860 -10.187952 3.793303 6.469442 4.772323 -22.746064 6.441630 -1.900981 -1.102256 0.020999 -2.143853 3.730144 0.190060 0.397970 0.293770 -3.780561 -1.520614 -7.854838 22.730495 -7.972138 13.548106 -4.981680 -5.286824 6.617786 4.780387 2.611460 -14.670850 5.872200 -10.301521 16.980905 -4.913180 -6.225630 -5.772610 -0.982382 -8.503484 5.360470 -13.712483 0.105691 -0.850382 16.232553 0.430994 -0.497084 -4.242530 3.105906 0.242020 0.277500 -0.206500 0.360290 -10.352135 8.027173 12.226395 22.619468 -1.961986 -1.963016 -17.219683 0.719244 -0.789794 2.518305 -1.884352 -0.144060 0.110830 -0.180850 -0.083920 
